<mxfile host="app.diagrams.net" agent="Mozilla/5.0 (Windows NT 10.0; Win64; x64) AppleWebKit/537.36 (KHTML, like Gecko) Chrome/127.0.0.0 Safari/537.36" version="24.7.6">
  <diagram name="Page-1" id="c7558073-3199-34d8-9f00-42111426c3f3">
    <mxGraphModel dx="1290" dy="530" grid="1" gridSize="10" guides="1" tooltips="1" connect="1" arrows="1" fold="1" page="1" pageScale="1" pageWidth="826" pageHeight="1169" background="none" math="0" shadow="0">
      <root>
        <mxCell id="0" />
        <mxCell id="1" parent="0" />
        <mxCell id="yOjdJgGesfleaYU3HEAB-116" value="" style="shape=flexArrow;endArrow=classic;html=1;rounded=0;fillColor=#b1ddf0;strokeColor=#10739e;movable=1;resizable=1;rotatable=1;deletable=1;editable=1;locked=0;connectable=1;" parent="1" edge="1">
          <mxGeometry width="50" height="50" relative="1" as="geometry">
            <mxPoint x="242" y="650" as="sourcePoint" />
            <mxPoint x="242" y="620" as="targetPoint" />
          </mxGeometry>
        </mxCell>
        <mxCell id="yOjdJgGesfleaYU3HEAB-131" value="" style="shape=flexArrow;endArrow=classic;html=1;rounded=0;fillColor=#b1ddf0;strokeColor=#10739e;movable=1;resizable=1;rotatable=1;deletable=1;editable=1;locked=0;connectable=1;" parent="1" edge="1">
          <mxGeometry width="50" height="50" relative="1" as="geometry">
            <mxPoint x="322" y="651" as="sourcePoint" />
            <mxPoint x="322" y="621" as="targetPoint" />
          </mxGeometry>
        </mxCell>
        <mxCell id="yOjdJgGesfleaYU3HEAB-134" value="" style="shape=flexArrow;endArrow=classic;html=1;rounded=0;fillColor=#b1ddf0;strokeColor=#10739e;movable=1;resizable=1;rotatable=1;deletable=1;editable=1;locked=0;connectable=1;" parent="1" edge="1">
          <mxGeometry width="50" height="50" relative="1" as="geometry">
            <mxPoint x="512" y="651" as="sourcePoint" />
            <mxPoint x="512" y="621" as="targetPoint" />
          </mxGeometry>
        </mxCell>
        <mxCell id="yOjdJgGesfleaYU3HEAB-137" value="" style="shape=flexArrow;endArrow=classic;html=1;rounded=0;fillColor=#b1ddf0;strokeColor=#10739e;movable=1;resizable=1;rotatable=1;deletable=1;editable=1;locked=0;connectable=1;" parent="1" edge="1">
          <mxGeometry width="50" height="50" relative="1" as="geometry">
            <mxPoint x="443" y="651" as="sourcePoint" />
            <mxPoint x="443" y="621" as="targetPoint" />
          </mxGeometry>
        </mxCell>
        <mxCell id="yOjdJgGesfleaYU3HEAB-97" value="[CLS]" style="whiteSpace=wrap;align=center;verticalAlign=middle;fontStyle=1;strokeWidth=3;fillColor=#fad7ac;strokeColor=#b46504;rounded=1;arcSize=43;movable=1;resizable=1;rotatable=1;deletable=1;editable=1;locked=0;connectable=1;fontSize=16;" parent="1" vertex="1">
          <mxGeometry x="211" y="660" width="60" height="40" as="geometry" />
        </mxCell>
        <mxCell id="yOjdJgGesfleaYU3HEAB-98" value="TOK 1" style="whiteSpace=wrap;align=center;verticalAlign=middle;fontStyle=1;strokeWidth=3;fillColor=#fad7ac;strokeColor=#b46504;rounded=1;arcSize=43;movable=1;resizable=1;rotatable=1;deletable=1;editable=1;locked=0;connectable=1;flipH=1;fontSize=16;" parent="1" vertex="1">
          <mxGeometry x="291" y="660" width="60" height="40" as="geometry" />
        </mxCell>
        <mxCell id="yOjdJgGesfleaYU3HEAB-99" value="TOK M" style="whiteSpace=wrap;align=center;verticalAlign=middle;fontStyle=1;strokeWidth=3;fillColor=#fad7ac;strokeColor=#b46504;rounded=1;arcSize=43;movable=1;resizable=1;rotatable=1;deletable=1;editable=1;locked=0;connectable=1;fontSize=16;" parent="1" vertex="1">
          <mxGeometry x="411" y="660" width="60" height="40" as="geometry" />
        </mxCell>
        <mxCell id="yOjdJgGesfleaYU3HEAB-100" value="[SEP]" style="whiteSpace=wrap;align=center;verticalAlign=middle;fontStyle=1;strokeWidth=3;fillColor=#fad7ac;strokeColor=#b46504;rounded=1;arcSize=43;movable=1;resizable=1;rotatable=1;deletable=1;editable=1;locked=0;connectable=1;fontSize=16;" parent="1" vertex="1">
          <mxGeometry x="482" y="660" width="60" height="40" as="geometry" />
        </mxCell>
        <mxCell id="yOjdJgGesfleaYU3HEAB-102" value="[SEP]" style="whiteSpace=wrap;align=center;verticalAlign=middle;fontStyle=1;strokeWidth=3;fillColor=#fad7ac;strokeColor=#b46504;rounded=1;arcSize=43;movable=1;resizable=1;rotatable=1;deletable=1;editable=1;locked=0;connectable=1;fontSize=16;" parent="1" vertex="1">
          <mxGeometry x="561" y="660" width="60" height="40" as="geometry" />
        </mxCell>
        <mxCell id="yOjdJgGesfleaYU3HEAB-104" value="" style="shape=waypoint;sketch=0;fillStyle=solid;size=6;pointerEvents=1;points=[];fillColor=none;resizable=1;rotatable=1;perimeter=centerPerimeter;snapToPoint=1;movable=1;deletable=1;editable=1;locked=0;connectable=1;fontSize=16;" parent="1" vertex="1">
          <mxGeometry x="361" y="670" width="20" height="20" as="geometry" />
        </mxCell>
        <mxCell id="yOjdJgGesfleaYU3HEAB-105" value="" style="shape=waypoint;sketch=0;fillStyle=solid;size=6;pointerEvents=1;points=[];fillColor=none;resizable=1;rotatable=1;perimeter=centerPerimeter;snapToPoint=1;movable=1;deletable=1;editable=1;locked=0;connectable=1;fontSize=16;" parent="1" vertex="1">
          <mxGeometry x="381" y="670" width="20" height="20" as="geometry" />
        </mxCell>
        <mxCell id="yOjdJgGesfleaYU3HEAB-106" value="" style="shape=waypoint;sketch=0;fillStyle=solid;size=6;pointerEvents=1;points=[];fillColor=none;resizable=1;rotatable=1;perimeter=centerPerimeter;snapToPoint=1;movable=1;deletable=1;editable=1;locked=0;connectable=1;fontSize=16;" parent="1" vertex="1">
          <mxGeometry x="371" y="670" width="20" height="20" as="geometry" />
        </mxCell>
        <mxCell id="yOjdJgGesfleaYU3HEAB-108" value="TOK 1" style="whiteSpace=wrap;align=center;verticalAlign=middle;fontStyle=1;strokeWidth=3;fillColor=#fad7ac;strokeColor=#b46504;rounded=1;arcSize=43;movable=1;resizable=1;rotatable=1;deletable=1;editable=1;locked=0;connectable=1;fontSize=16;" parent="1" vertex="1">
          <mxGeometry x="641" y="660" width="60" height="40" as="geometry" />
        </mxCell>
        <mxCell id="yOjdJgGesfleaYU3HEAB-109" value="TOK N" style="whiteSpace=wrap;align=center;verticalAlign=middle;fontStyle=1;strokeWidth=3;fillColor=#fad7ac;strokeColor=#b46504;rounded=1;arcSize=43;movable=1;resizable=1;rotatable=1;deletable=1;editable=1;locked=0;connectable=1;fontSize=16;" parent="1" vertex="1">
          <mxGeometry x="761" y="660" width="60" height="40" as="geometry" />
        </mxCell>
        <mxCell id="yOjdJgGesfleaYU3HEAB-110" value="" style="shape=waypoint;sketch=0;fillStyle=solid;size=6;pointerEvents=1;points=[];fillColor=none;resizable=1;rotatable=1;perimeter=centerPerimeter;snapToPoint=1;movable=1;deletable=1;editable=1;locked=0;connectable=1;fontSize=16;" parent="1" vertex="1">
          <mxGeometry x="711" y="670" width="20" height="20" as="geometry" />
        </mxCell>
        <mxCell id="yOjdJgGesfleaYU3HEAB-111" value="" style="shape=waypoint;sketch=0;fillStyle=solid;size=6;pointerEvents=1;points=[];fillColor=none;resizable=1;rotatable=1;perimeter=centerPerimeter;snapToPoint=1;movable=1;deletable=1;editable=1;locked=0;connectable=1;fontSize=16;" parent="1" vertex="1">
          <mxGeometry x="734" y="670" width="20" height="20" as="geometry" />
        </mxCell>
        <mxCell id="yOjdJgGesfleaYU3HEAB-112" value="" style="shape=waypoint;sketch=0;fillStyle=solid;size=6;pointerEvents=1;points=[];fillColor=none;resizable=1;rotatable=1;perimeter=centerPerimeter;snapToPoint=1;movable=1;deletable=1;editable=1;locked=0;connectable=1;fontSize=16;" parent="1" vertex="1">
          <mxGeometry x="721" y="670" width="20" height="20" as="geometry" />
        </mxCell>
        <mxCell id="yOjdJgGesfleaYU3HEAB-113" value="[SEP]" style="whiteSpace=wrap;align=center;verticalAlign=middle;fontStyle=1;strokeWidth=3;fillColor=#fad7ac;strokeColor=#b46504;rounded=1;arcSize=43;movable=1;resizable=1;rotatable=1;deletable=1;editable=1;locked=0;connectable=1;fontSize=16;" parent="1" vertex="1">
          <mxGeometry x="838" y="660" width="60" height="40" as="geometry" />
        </mxCell>
        <mxCell id="yOjdJgGesfleaYU3HEAB-150" value="" style="shape=flexArrow;endArrow=classic;html=1;rounded=0;fillColor=#b1ddf0;strokeColor=#10739e;movable=1;resizable=1;rotatable=1;deletable=1;editable=1;locked=0;connectable=1;" parent="1" edge="1">
          <mxGeometry width="50" height="50" relative="1" as="geometry">
            <mxPoint x="591" y="650" as="sourcePoint" />
            <mxPoint x="591" y="620" as="targetPoint" />
          </mxGeometry>
        </mxCell>
        <mxCell id="yOjdJgGesfleaYU3HEAB-151" value="" style="shape=flexArrow;endArrow=classic;html=1;rounded=0;fillColor=#b1ddf0;strokeColor=#10739e;movable=1;resizable=1;rotatable=1;deletable=1;editable=1;locked=0;connectable=1;" parent="1" edge="1">
          <mxGeometry width="50" height="50" relative="1" as="geometry">
            <mxPoint x="671" y="651" as="sourcePoint" />
            <mxPoint x="671" y="621" as="targetPoint" />
          </mxGeometry>
        </mxCell>
        <mxCell id="yOjdJgGesfleaYU3HEAB-152" value="" style="shape=flexArrow;endArrow=classic;html=1;rounded=0;fillColor=#b1ddf0;strokeColor=#10739e;movable=1;resizable=1;rotatable=1;deletable=1;editable=1;locked=0;connectable=1;" parent="1" edge="1">
          <mxGeometry width="50" height="50" relative="1" as="geometry">
            <mxPoint x="867" y="651" as="sourcePoint" />
            <mxPoint x="867" y="621" as="targetPoint" />
          </mxGeometry>
        </mxCell>
        <mxCell id="yOjdJgGesfleaYU3HEAB-153" value="" style="shape=flexArrow;endArrow=classic;html=1;rounded=0;fillColor=#b1ddf0;strokeColor=#10739e;movable=1;resizable=1;rotatable=1;deletable=1;editable=1;locked=0;connectable=1;" parent="1" edge="1">
          <mxGeometry width="50" height="50" relative="1" as="geometry">
            <mxPoint x="792" y="651" as="sourcePoint" />
            <mxPoint x="792" y="621" as="targetPoint" />
          </mxGeometry>
        </mxCell>
        <mxCell id="yOjdJgGesfleaYU3HEAB-154" value="&lt;font face=&quot;Helvetica&quot; style=&quot;font-size: 31px;&quot;&gt;&lt;b style=&quot;font-size: 31px;&quot;&gt;RoBERTa&lt;/b&gt;&lt;/font&gt;" style="rounded=1;whiteSpace=wrap;html=1;fillColor=#ffcccc;strokeColor=#36393d;strokeWidth=3;fontSize=31;" parent="1" vertex="1">
          <mxGeometry x="210" y="553" width="680" height="60" as="geometry" />
        </mxCell>
        <mxCell id="yOjdJgGesfleaYU3HEAB-209" style="edgeStyle=orthogonalEdgeStyle;rounded=0;orthogonalLoop=1;jettySize=auto;html=1;exitX=0.5;exitY=0;exitDx=0;exitDy=0;" parent="1" source="yOjdJgGesfleaYU3HEAB-155" target="yOjdJgGesfleaYU3HEAB-179" edge="1">
          <mxGeometry relative="1" as="geometry" />
        </mxCell>
        <mxCell id="yOjdJgGesfleaYU3HEAB-155" value="" style="whiteSpace=wrap;align=center;verticalAlign=middle;fontStyle=1;strokeWidth=3;fillColor=#fad7ac;strokeColor=#b46504;rounded=1;arcSize=43;movable=1;resizable=1;rotatable=1;deletable=1;editable=1;locked=0;connectable=1;fontSize=16;" parent="1" vertex="1">
          <mxGeometry x="211" y="466" width="60" height="40" as="geometry" />
        </mxCell>
        <mxCell id="yOjdJgGesfleaYU3HEAB-160" value="" style="shape=waypoint;sketch=0;fillStyle=solid;size=6;pointerEvents=1;points=[];fillColor=none;resizable=1;rotatable=1;perimeter=centerPerimeter;snapToPoint=1;movable=1;deletable=1;editable=1;locked=0;connectable=1;fontSize=16;" parent="1" vertex="1">
          <mxGeometry x="361" y="476" width="20" height="20" as="geometry" />
        </mxCell>
        <mxCell id="yOjdJgGesfleaYU3HEAB-161" value="" style="shape=waypoint;sketch=0;fillStyle=solid;size=6;pointerEvents=1;points=[];fillColor=none;resizable=1;rotatable=1;perimeter=centerPerimeter;snapToPoint=1;movable=1;deletable=1;editable=1;locked=0;connectable=1;fontSize=16;" parent="1" vertex="1">
          <mxGeometry x="381" y="476" width="20" height="20" as="geometry" />
        </mxCell>
        <mxCell id="yOjdJgGesfleaYU3HEAB-162" value="" style="shape=waypoint;sketch=0;fillStyle=solid;size=6;pointerEvents=1;points=[];fillColor=none;resizable=1;rotatable=1;perimeter=centerPerimeter;snapToPoint=1;movable=1;deletable=1;editable=1;locked=0;connectable=1;fontSize=16;" parent="1" vertex="1">
          <mxGeometry x="371" y="476" width="20" height="20" as="geometry" />
        </mxCell>
        <mxCell id="yOjdJgGesfleaYU3HEAB-165" value="" style="shape=waypoint;sketch=0;fillStyle=solid;size=6;pointerEvents=1;points=[];fillColor=none;resizable=1;rotatable=1;perimeter=centerPerimeter;snapToPoint=1;movable=1;deletable=1;editable=1;locked=0;connectable=1;fontSize=16;" parent="1" vertex="1">
          <mxGeometry x="711" y="476" width="20" height="20" as="geometry" />
        </mxCell>
        <mxCell id="yOjdJgGesfleaYU3HEAB-166" value="" style="shape=waypoint;sketch=0;fillStyle=solid;size=6;pointerEvents=1;points=[];fillColor=none;resizable=1;rotatable=1;perimeter=centerPerimeter;snapToPoint=1;movable=1;deletable=1;editable=1;locked=0;connectable=1;fontSize=16;" parent="1" vertex="1">
          <mxGeometry x="731" y="476" width="20" height="20" as="geometry" />
        </mxCell>
        <mxCell id="yOjdJgGesfleaYU3HEAB-167" value="" style="shape=waypoint;sketch=0;fillStyle=solid;size=6;pointerEvents=1;points=[];fillColor=none;resizable=1;rotatable=1;perimeter=centerPerimeter;snapToPoint=1;movable=1;deletable=1;editable=1;locked=0;connectable=1;fontSize=16;" parent="1" vertex="1">
          <mxGeometry x="721" y="476" width="20" height="20" as="geometry" />
        </mxCell>
        <mxCell id="yOjdJgGesfleaYU3HEAB-169" value="" style="shape=flexArrow;endArrow=classic;html=1;rounded=0;fillColor=#b1ddf0;strokeColor=#10739e;movable=1;resizable=1;rotatable=1;deletable=1;editable=1;locked=0;connectable=1;" parent="1" edge="1">
          <mxGeometry width="50" height="50" relative="1" as="geometry">
            <mxPoint x="242" y="544" as="sourcePoint" />
            <mxPoint x="242" y="514" as="targetPoint" />
          </mxGeometry>
        </mxCell>
        <mxCell id="yOjdJgGesfleaYU3HEAB-170" value="" style="shape=flexArrow;endArrow=classic;html=1;rounded=0;fillColor=#b1ddf0;strokeColor=#10739e;movable=1;resizable=1;rotatable=1;deletable=1;editable=1;locked=0;connectable=1;" parent="1" edge="1">
          <mxGeometry width="50" height="50" relative="1" as="geometry">
            <mxPoint x="322" y="545" as="sourcePoint" />
            <mxPoint x="322" y="515" as="targetPoint" />
          </mxGeometry>
        </mxCell>
        <mxCell id="yOjdJgGesfleaYU3HEAB-171" value="" style="shape=flexArrow;endArrow=classic;html=1;rounded=0;fillColor=#b1ddf0;strokeColor=#10739e;movable=1;resizable=1;rotatable=1;deletable=1;editable=1;locked=0;connectable=1;" parent="1" edge="1">
          <mxGeometry width="50" height="50" relative="1" as="geometry">
            <mxPoint x="511" y="545" as="sourcePoint" />
            <mxPoint x="511" y="515" as="targetPoint" />
          </mxGeometry>
        </mxCell>
        <mxCell id="yOjdJgGesfleaYU3HEAB-172" value="" style="shape=flexArrow;endArrow=classic;html=1;rounded=0;fillColor=#b1ddf0;strokeColor=#10739e;movable=1;resizable=1;rotatable=1;deletable=1;editable=1;locked=0;connectable=1;" parent="1" edge="1">
          <mxGeometry width="50" height="50" relative="1" as="geometry">
            <mxPoint x="443" y="545" as="sourcePoint" />
            <mxPoint x="443" y="515" as="targetPoint" />
          </mxGeometry>
        </mxCell>
        <mxCell id="yOjdJgGesfleaYU3HEAB-173" value="" style="shape=flexArrow;endArrow=classic;html=1;rounded=0;fillColor=#b1ddf0;strokeColor=#10739e;movable=1;resizable=1;rotatable=1;deletable=1;editable=1;locked=0;connectable=1;" parent="1" edge="1">
          <mxGeometry width="50" height="50" relative="1" as="geometry">
            <mxPoint x="591" y="544" as="sourcePoint" />
            <mxPoint x="591" y="514" as="targetPoint" />
          </mxGeometry>
        </mxCell>
        <mxCell id="yOjdJgGesfleaYU3HEAB-174" value="" style="shape=flexArrow;endArrow=classic;html=1;rounded=0;fillColor=#b1ddf0;strokeColor=#10739e;movable=1;resizable=1;rotatable=1;deletable=1;editable=1;locked=0;connectable=1;" parent="1" edge="1">
          <mxGeometry width="50" height="50" relative="1" as="geometry">
            <mxPoint x="671" y="545" as="sourcePoint" />
            <mxPoint x="671" y="515" as="targetPoint" />
          </mxGeometry>
        </mxCell>
        <mxCell id="yOjdJgGesfleaYU3HEAB-175" value="" style="shape=flexArrow;endArrow=classic;html=1;rounded=0;fillColor=#b1ddf0;strokeColor=#10739e;movable=1;resizable=1;rotatable=1;deletable=1;editable=1;locked=0;connectable=1;" parent="1" edge="1">
          <mxGeometry width="50" height="50" relative="1" as="geometry">
            <mxPoint x="867.29" y="545" as="sourcePoint" />
            <mxPoint x="867.29" y="515" as="targetPoint" />
          </mxGeometry>
        </mxCell>
        <mxCell id="yOjdJgGesfleaYU3HEAB-176" value="" style="shape=flexArrow;endArrow=classic;html=1;rounded=0;fillColor=#b1ddf0;strokeColor=#10739e;movable=1;resizable=1;rotatable=1;deletable=1;editable=1;locked=0;connectable=1;" parent="1" edge="1">
          <mxGeometry width="50" height="50" relative="1" as="geometry">
            <mxPoint x="792" y="545" as="sourcePoint" />
            <mxPoint x="792" y="515" as="targetPoint" />
          </mxGeometry>
        </mxCell>
        <mxCell id="yOjdJgGesfleaYU3HEAB-179" value="" style="whiteSpace=wrap;align=center;verticalAlign=middle;fontStyle=1;strokeWidth=3;fillColor=#eeeeee;strokeColor=#36393d;rounded=1;arcSize=43;movable=1;resizable=1;rotatable=1;deletable=1;editable=1;locked=0;connectable=1;fontSize=16;textShadow=1;" parent="1" vertex="1">
          <mxGeometry x="426" y="340" width="60" height="40" as="geometry" />
        </mxCell>
        <mxCell id="yOjdJgGesfleaYU3HEAB-219" style="edgeStyle=orthogonalEdgeStyle;rounded=0;orthogonalLoop=1;jettySize=auto;html=1;exitX=0.5;exitY=0;exitDx=0;exitDy=0;entryX=0.5;entryY=1;entryDx=0;entryDy=0;" parent="1" edge="1">
          <mxGeometry relative="1" as="geometry">
            <mxPoint x="524" y="340" as="sourcePoint" />
            <mxPoint x="519" y="307" as="targetPoint" />
          </mxGeometry>
        </mxCell>
        <mxCell id="yOjdJgGesfleaYU3HEAB-180" value="" style="whiteSpace=wrap;align=center;verticalAlign=middle;fontStyle=1;strokeWidth=3;fillColor=#eeeeee;strokeColor=#36393d;rounded=1;arcSize=43;movable=1;resizable=1;rotatable=1;deletable=1;editable=1;locked=0;connectable=1;fontSize=16;" parent="1" vertex="1">
          <mxGeometry x="490" y="340" width="60" height="40" as="geometry" />
        </mxCell>
        <mxCell id="yOjdJgGesfleaYU3HEAB-181" value="" style="whiteSpace=wrap;align=center;verticalAlign=middle;fontStyle=1;strokeWidth=3;fillColor=#eeeeee;strokeColor=#36393d;rounded=1;arcSize=43;movable=1;resizable=1;rotatable=1;deletable=1;editable=1;locked=0;connectable=1;fontSize=16;" parent="1" vertex="1">
          <mxGeometry x="554" y="340" width="60" height="40" as="geometry" />
        </mxCell>
        <mxCell id="yOjdJgGesfleaYU3HEAB-221" value="" style="edgeStyle=orthogonalEdgeStyle;rounded=0;orthogonalLoop=1;jettySize=auto;html=1;" parent="1" edge="1">
          <mxGeometry relative="1" as="geometry">
            <mxPoint x="518.5" y="299" as="sourcePoint" />
            <mxPoint x="518.5" y="219" as="targetPoint" />
          </mxGeometry>
        </mxCell>
        <mxCell id="yOjdJgGesfleaYU3HEAB-182" value="&lt;font face=&quot;Helvetica&quot; style=&quot;font-size: 16px;&quot;&gt;&lt;b style=&quot;font-size: 16px;&quot;&gt;Classification Head&lt;/b&gt;&lt;/font&gt;" style="rounded=1;whiteSpace=wrap;html=1;strokeWidth=3;fillColor=#bac8d3;strokeColor=#23445d;fontSize=16;" parent="1" vertex="1">
          <mxGeometry x="420" y="267" width="190" height="40" as="geometry" />
        </mxCell>
        <mxCell id="yOjdJgGesfleaYU3HEAB-184" value="" style="shape=flexArrow;endArrow=classic;html=1;rounded=0;fillColor=#b1ddf0;strokeColor=#10739e;movable=1;resizable=1;rotatable=1;deletable=1;editable=1;locked=0;connectable=1;" parent="1" edge="1">
          <mxGeometry width="50" height="50" relative="1" as="geometry">
            <mxPoint x="961" y="650" as="sourcePoint" />
            <mxPoint x="961" y="620" as="targetPoint" />
          </mxGeometry>
        </mxCell>
        <mxCell id="yOjdJgGesfleaYU3HEAB-185" value="" style="shape=flexArrow;endArrow=classic;html=1;rounded=0;fillColor=#b1ddf0;strokeColor=#10739e;movable=1;resizable=1;rotatable=1;deletable=1;editable=1;locked=0;connectable=1;" parent="1" edge="1">
          <mxGeometry width="50" height="50" relative="1" as="geometry">
            <mxPoint x="1041" y="651" as="sourcePoint" />
            <mxPoint x="1041" y="621" as="targetPoint" />
          </mxGeometry>
        </mxCell>
        <mxCell id="yOjdJgGesfleaYU3HEAB-186" value="" style="shape=flexArrow;endArrow=classic;html=1;rounded=0;fillColor=#b1ddf0;strokeColor=#10739e;movable=1;resizable=1;rotatable=1;deletable=1;editable=1;locked=0;connectable=1;" parent="1" edge="1">
          <mxGeometry width="50" height="50" relative="1" as="geometry">
            <mxPoint x="1230" y="651" as="sourcePoint" />
            <mxPoint x="1230" y="621" as="targetPoint" />
          </mxGeometry>
        </mxCell>
        <mxCell id="yOjdJgGesfleaYU3HEAB-187" value="" style="shape=flexArrow;endArrow=classic;html=1;rounded=0;fillColor=#b1ddf0;strokeColor=#10739e;movable=1;resizable=1;rotatable=1;deletable=1;editable=1;locked=0;connectable=1;" parent="1" edge="1">
          <mxGeometry width="50" height="50" relative="1" as="geometry">
            <mxPoint x="1162" y="651" as="sourcePoint" />
            <mxPoint x="1162" y="621" as="targetPoint" />
          </mxGeometry>
        </mxCell>
        <mxCell id="yOjdJgGesfleaYU3HEAB-188" value="[CLS]" style="whiteSpace=wrap;align=center;verticalAlign=middle;fontStyle=1;strokeWidth=3;fillColor=#fad7ac;strokeColor=#b46504;rounded=1;arcSize=43;movable=1;resizable=1;rotatable=1;deletable=1;editable=1;locked=0;connectable=1;fontSize=16;" parent="1" vertex="1">
          <mxGeometry x="930" y="660" width="60" height="40" as="geometry" />
        </mxCell>
        <mxCell id="yOjdJgGesfleaYU3HEAB-189" value="TOK 1" style="whiteSpace=wrap;align=center;verticalAlign=middle;fontStyle=1;strokeWidth=3;fillColor=#fad7ac;strokeColor=#b46504;rounded=1;arcSize=43;movable=1;resizable=1;rotatable=1;deletable=1;editable=1;locked=0;connectable=1;flipH=1;fontSize=16;" parent="1" vertex="1">
          <mxGeometry x="1010" y="660" width="60" height="40" as="geometry" />
        </mxCell>
        <mxCell id="yOjdJgGesfleaYU3HEAB-190" value="TOK M" style="whiteSpace=wrap;align=center;verticalAlign=middle;fontStyle=1;strokeWidth=3;fillColor=#fad7ac;strokeColor=#b46504;rounded=1;arcSize=43;movable=1;resizable=1;rotatable=1;deletable=1;editable=1;locked=0;connectable=1;fontSize=16;" parent="1" vertex="1">
          <mxGeometry x="1130" y="660" width="60" height="40" as="geometry" />
        </mxCell>
        <mxCell id="yOjdJgGesfleaYU3HEAB-191" value="[SEP]" style="whiteSpace=wrap;align=center;verticalAlign=middle;fontStyle=1;strokeWidth=3;fillColor=#fad7ac;strokeColor=#b46504;rounded=1;arcSize=43;movable=1;resizable=1;rotatable=1;deletable=1;editable=1;locked=0;connectable=1;fontSize=16;" parent="1" vertex="1">
          <mxGeometry x="1200" y="660" width="60" height="40" as="geometry" />
        </mxCell>
        <mxCell id="yOjdJgGesfleaYU3HEAB-192" value="" style="shape=waypoint;sketch=0;fillStyle=solid;size=6;pointerEvents=1;points=[];fillColor=none;resizable=1;rotatable=1;perimeter=centerPerimeter;snapToPoint=1;movable=1;deletable=1;editable=1;locked=0;connectable=1;fontSize=16;" parent="1" vertex="1">
          <mxGeometry x="1080" y="670" width="20" height="20" as="geometry" />
        </mxCell>
        <mxCell id="yOjdJgGesfleaYU3HEAB-193" value="" style="shape=waypoint;sketch=0;fillStyle=solid;size=6;pointerEvents=1;points=[];fillColor=none;resizable=1;rotatable=1;perimeter=centerPerimeter;snapToPoint=1;movable=1;deletable=1;editable=1;locked=0;connectable=1;fontSize=16;" parent="1" vertex="1">
          <mxGeometry x="1100" y="670" width="20" height="20" as="geometry" />
        </mxCell>
        <mxCell id="yOjdJgGesfleaYU3HEAB-194" value="" style="shape=waypoint;sketch=0;fillStyle=solid;size=6;pointerEvents=1;points=[];fillColor=none;resizable=1;rotatable=1;perimeter=centerPerimeter;snapToPoint=1;movable=1;deletable=1;editable=1;locked=0;connectable=1;fontSize=16;" parent="1" vertex="1">
          <mxGeometry x="1090" y="670" width="20" height="20" as="geometry" />
        </mxCell>
        <mxCell id="yOjdJgGesfleaYU3HEAB-202" value="" style="shape=flexArrow;endArrow=classic;html=1;rounded=0;fillColor=#b1ddf0;strokeColor=#10739e;movable=1;resizable=1;rotatable=1;deletable=1;editable=1;locked=0;connectable=1;" parent="1" edge="1">
          <mxGeometry width="50" height="50" relative="1" as="geometry">
            <mxPoint x="961" y="544" as="sourcePoint" />
            <mxPoint x="961" y="514" as="targetPoint" />
          </mxGeometry>
        </mxCell>
        <mxCell id="yOjdJgGesfleaYU3HEAB-203" value="" style="shape=flexArrow;endArrow=classic;html=1;rounded=0;fillColor=#b1ddf0;strokeColor=#10739e;movable=1;resizable=1;rotatable=1;deletable=1;editable=1;locked=0;connectable=1;" parent="1" edge="1">
          <mxGeometry width="50" height="50" relative="1" as="geometry">
            <mxPoint x="1041" y="545" as="sourcePoint" />
            <mxPoint x="1041" y="515" as="targetPoint" />
          </mxGeometry>
        </mxCell>
        <mxCell id="yOjdJgGesfleaYU3HEAB-204" value="" style="shape=flexArrow;endArrow=classic;html=1;rounded=0;fillColor=#b1ddf0;strokeColor=#10739e;movable=1;resizable=1;rotatable=1;deletable=1;editable=1;locked=0;connectable=1;" parent="1" edge="1">
          <mxGeometry width="50" height="50" relative="1" as="geometry">
            <mxPoint x="1230" y="545" as="sourcePoint" />
            <mxPoint x="1230" y="515" as="targetPoint" />
          </mxGeometry>
        </mxCell>
        <mxCell id="yOjdJgGesfleaYU3HEAB-205" value="" style="shape=flexArrow;endArrow=classic;html=1;rounded=0;fillColor=#b1ddf0;strokeColor=#10739e;movable=1;resizable=1;rotatable=1;deletable=1;editable=1;locked=0;connectable=1;" parent="1" edge="1">
          <mxGeometry width="50" height="50" relative="1" as="geometry">
            <mxPoint x="1162" y="545" as="sourcePoint" />
            <mxPoint x="1162" y="515" as="targetPoint" />
          </mxGeometry>
        </mxCell>
        <mxCell id="yOjdJgGesfleaYU3HEAB-206" value="&lt;font face=&quot;Helvetica&quot; style=&quot;font-size: 31px;&quot;&gt;&lt;b style=&quot;font-size: 31px;&quot;&gt;BERT&lt;/b&gt;&lt;/font&gt;" style="rounded=1;whiteSpace=wrap;html=1;fillColor=#ffcccc;strokeColor=#36393d;strokeWidth=3;fontSize=31;" parent="1" vertex="1">
          <mxGeometry x="931" y="553" width="338" height="60" as="geometry" />
        </mxCell>
        <mxCell id="yOjdJgGesfleaYU3HEAB-207" value="&lt;font style=&quot;font-size: 16px;&quot; face=&quot;Helvetica&quot;&gt;&lt;b style=&quot;font-size: 16px;&quot;&gt;Classification Layer&lt;/b&gt;&lt;/font&gt;" style="rounded=1;whiteSpace=wrap;html=1;strokeWidth=3;fillColor=#bac8d3;strokeColor=#23445d;fontSize=16;" parent="1" vertex="1">
          <mxGeometry x="997.5" y="280" width="221" height="40" as="geometry" />
        </mxCell>
        <mxCell id="yOjdJgGesfleaYU3HEAB-210" style="edgeStyle=orthogonalEdgeStyle;rounded=0;orthogonalLoop=1;jettySize=auto;html=1;exitX=0;exitY=0.5;exitDx=0;exitDy=0;entryX=0.5;entryY=1;entryDx=0;entryDy=0;" parent="1" source="yOjdJgGesfleaYU3HEAB-208" target="yOjdJgGesfleaYU3HEAB-180" edge="1">
          <mxGeometry relative="1" as="geometry" />
        </mxCell>
        <mxCell id="yOjdJgGesfleaYU3HEAB-212" value="" style="swimlane;startSize=0;strokeWidth=3;dashed=1;strokeColor=#004C99;" parent="1" vertex="1">
          <mxGeometry x="910" y="250" width="380" height="455" as="geometry" />
        </mxCell>
        <mxCell id="-4hhy1pUOCJqZTsLrMnr-24" value="" style="whiteSpace=wrap;align=center;verticalAlign=middle;fontStyle=1;strokeWidth=3;fillColor=#fad7ac;strokeColor=#b46504;rounded=1;arcSize=43;movable=1;resizable=1;rotatable=1;deletable=1;editable=1;locked=0;connectable=1;fontSize=16;" parent="yOjdJgGesfleaYU3HEAB-212" vertex="1">
          <mxGeometry x="23" y="216.5" width="60" height="40" as="geometry" />
        </mxCell>
        <mxCell id="-4hhy1pUOCJqZTsLrMnr-25" value="" style="shape=waypoint;sketch=0;fillStyle=solid;size=6;pointerEvents=1;points=[];fillColor=none;resizable=1;rotatable=1;perimeter=centerPerimeter;snapToPoint=1;movable=1;deletable=1;editable=1;locked=0;connectable=1;fontSize=16;" parent="yOjdJgGesfleaYU3HEAB-212" vertex="1">
          <mxGeometry x="173" y="226.5" width="20" height="20" as="geometry" />
        </mxCell>
        <mxCell id="-4hhy1pUOCJqZTsLrMnr-26" value="" style="shape=waypoint;sketch=0;fillStyle=solid;size=6;pointerEvents=1;points=[];fillColor=none;resizable=1;rotatable=1;perimeter=centerPerimeter;snapToPoint=1;movable=1;deletable=1;editable=1;locked=0;connectable=1;fontSize=16;" parent="yOjdJgGesfleaYU3HEAB-212" vertex="1">
          <mxGeometry x="193" y="226.5" width="20" height="20" as="geometry" />
        </mxCell>
        <mxCell id="-4hhy1pUOCJqZTsLrMnr-27" value="" style="shape=waypoint;sketch=0;fillStyle=solid;size=6;pointerEvents=1;points=[];fillColor=none;resizable=1;rotatable=1;perimeter=centerPerimeter;snapToPoint=1;movable=1;deletable=1;editable=1;locked=0;connectable=1;fontSize=16;" parent="yOjdJgGesfleaYU3HEAB-212" vertex="1">
          <mxGeometry x="183" y="226.5" width="20" height="20" as="geometry" />
        </mxCell>
        <mxCell id="-4hhy1pUOCJqZTsLrMnr-28" value="&lt;span&gt;&lt;font style=&quot;font-size: 16px;&quot;&gt;C&lt;/font&gt;P&lt;/span&gt;&lt;font style=&quot;font-size: 16px;&quot;&gt;/&lt;/font&gt;&lt;font style=&quot;&quot;&gt;&lt;span style=&quot;font-size: 16px;&quot;&gt;C&lt;/span&gt;&lt;/font&gt;H" style="text;html=1;align=center;verticalAlign=middle;resizable=0;points=[];autosize=1;strokeColor=none;fillColor=none;fontStyle=1" parent="yOjdJgGesfleaYU3HEAB-212" vertex="1">
          <mxGeometry x="17" y="220.5" width="70" height="30" as="geometry" />
        </mxCell>
        <mxCell id="-4hhy1pUOCJqZTsLrMnr-29" value="" style="whiteSpace=wrap;align=center;verticalAlign=middle;fontStyle=1;strokeWidth=3;fillColor=#fad7ac;strokeColor=#b46504;rounded=1;arcSize=43;movable=1;resizable=1;rotatable=1;deletable=1;editable=1;locked=0;connectable=1;fontSize=16;" parent="yOjdJgGesfleaYU3HEAB-212" vertex="1">
          <mxGeometry x="105" y="215.5" width="60" height="40" as="geometry" />
        </mxCell>
        <mxCell id="-4hhy1pUOCJqZTsLrMnr-30" value="&lt;span style=&quot;font-size: 16px;&quot;&gt;T&lt;/span&gt;1" style="text;html=1;align=center;verticalAlign=middle;resizable=0;points=[];autosize=1;strokeColor=none;fillColor=none;fontStyle=1" parent="yOjdJgGesfleaYU3HEAB-212" vertex="1">
          <mxGeometry x="114" y="219.5" width="40" height="30" as="geometry" />
        </mxCell>
        <mxCell id="-4hhy1pUOCJqZTsLrMnr-31" value="" style="whiteSpace=wrap;align=center;verticalAlign=middle;fontStyle=1;strokeWidth=3;fillColor=#fad7ac;strokeColor=#b46504;rounded=1;arcSize=43;movable=1;resizable=1;rotatable=1;deletable=1;editable=1;locked=0;connectable=1;fontSize=16;" parent="yOjdJgGesfleaYU3HEAB-212" vertex="1">
          <mxGeometry x="225" y="216.5" width="60" height="40" as="geometry" />
        </mxCell>
        <mxCell id="-4hhy1pUOCJqZTsLrMnr-32" value="&lt;span style=&quot;font-size: 16px;&quot;&gt;T&lt;/span&gt;M" style="text;html=1;align=center;verticalAlign=middle;resizable=0;points=[];autosize=1;strokeColor=none;fillColor=none;fontStyle=1" parent="yOjdJgGesfleaYU3HEAB-212" vertex="1">
          <mxGeometry x="234" y="220.5" width="40" height="30" as="geometry" />
        </mxCell>
        <mxCell id="-4hhy1pUOCJqZTsLrMnr-33" value="" style="whiteSpace=wrap;align=center;verticalAlign=middle;fontStyle=1;strokeWidth=3;fillColor=#fad7ac;strokeColor=#b46504;rounded=1;arcSize=43;movable=1;resizable=1;rotatable=1;deletable=1;editable=1;locked=0;connectable=1;fontSize=16;" parent="yOjdJgGesfleaYU3HEAB-212" vertex="1">
          <mxGeometry x="295" y="215.5" width="60" height="40" as="geometry" />
        </mxCell>
        <mxCell id="-4hhy1pUOCJqZTsLrMnr-34" value="&lt;span style=&quot;font-size: 16px;&quot;&gt;T&lt;/span&gt;SEP" style="text;html=1;align=center;verticalAlign=middle;resizable=0;points=[];autosize=1;strokeColor=none;fillColor=none;fontStyle=1" parent="yOjdJgGesfleaYU3HEAB-212" vertex="1">
          <mxGeometry x="294" y="219.5" width="60" height="30" as="geometry" />
        </mxCell>
        <mxCell id="yOjdJgGesfleaYU3HEAB-208" value="&lt;font style=&quot;font-size: 16px;&quot; face=&quot;Helvetica&quot;&gt;&lt;b style=&quot;font-size: 16px;&quot;&gt;Linear&amp;nbsp;&lt;/b&gt;&lt;/font&gt;&lt;b style=&quot;font-size: 16px;&quot;&gt;Layer&lt;/b&gt;" style="rounded=1;whiteSpace=wrap;html=1;strokeWidth=3;fillColor=#f5f5f5;strokeColor=#666666;fontColor=#333333;fontSize=16;" parent="1" vertex="1">
          <mxGeometry x="793" y="379" width="221" height="40" as="geometry" />
        </mxCell>
        <mxCell id="yOjdJgGesfleaYU3HEAB-222" value="&lt;b&gt;&lt;font style=&quot;font-size: 16px;&quot;&gt;Premise&lt;/font&gt;&lt;/b&gt;" style="shape=curlyBracket;whiteSpace=wrap;html=1;rounded=1;labelPosition=center;verticalLabelPosition=bottom;align=center;verticalAlign=top;flipV=1;flipH=1;direction=south;size=0.5;strokeWidth=3;" parent="1" vertex="1">
          <mxGeometry x="321" y="710" width="120" height="20" as="geometry" />
        </mxCell>
        <mxCell id="yOjdJgGesfleaYU3HEAB-228" value="&lt;b&gt;&lt;font style=&quot;font-size: 16px;&quot;&gt;Hypothesis&lt;/font&gt;&lt;/b&gt;" style="shape=curlyBracket;whiteSpace=wrap;html=1;rounded=1;labelPosition=center;verticalLabelPosition=bottom;align=center;verticalAlign=top;flipV=1;flipH=1;direction=south;size=0.5;strokeWidth=3;" parent="1" vertex="1">
          <mxGeometry x="664" y="711" width="120" height="20" as="geometry" />
        </mxCell>
        <mxCell id="yOjdJgGesfleaYU3HEAB-229" value="&lt;b&gt;&lt;font style=&quot;font-size: 16px;&quot;&gt;Premise/Hypothesis&lt;/font&gt;&lt;/b&gt;" style="shape=curlyBracket;whiteSpace=wrap;html=1;rounded=1;labelPosition=center;verticalLabelPosition=bottom;align=center;verticalAlign=top;flipV=1;flipH=1;direction=south;size=0.5;strokeWidth=3;" parent="1" vertex="1">
          <mxGeometry x="1045" y="712" width="120" height="20" as="geometry" />
        </mxCell>
        <mxCell id="-4hhy1pUOCJqZTsLrMnr-5" value="&lt;span&gt;&lt;font style=&quot;font-size: 16px;&quot;&gt;C&lt;/font&gt;NLI&lt;/span&gt;" style="text;html=1;align=center;verticalAlign=middle;resizable=0;points=[];autosize=1;strokeColor=none;fillColor=none;fontStyle=1" parent="1" vertex="1">
          <mxGeometry x="215" y="470" width="50" height="30" as="geometry" />
        </mxCell>
        <mxCell id="-4hhy1pUOCJqZTsLrMnr-6" value="" style="whiteSpace=wrap;align=center;verticalAlign=middle;fontStyle=1;strokeWidth=3;fillColor=#fad7ac;strokeColor=#b46504;rounded=1;arcSize=43;movable=1;resizable=1;rotatable=1;deletable=1;editable=1;locked=0;connectable=1;fontSize=16;" parent="1" vertex="1">
          <mxGeometry x="291" y="466" width="60" height="40" as="geometry" />
        </mxCell>
        <mxCell id="-4hhy1pUOCJqZTsLrMnr-7" value="&lt;span style=&quot;font-size: 16px;&quot;&gt;T&lt;/span&gt;1" style="text;html=1;align=center;verticalAlign=middle;resizable=0;points=[];autosize=1;strokeColor=none;fillColor=none;fontStyle=1" parent="1" vertex="1">
          <mxGeometry x="300" y="470" width="40" height="30" as="geometry" />
        </mxCell>
        <mxCell id="-4hhy1pUOCJqZTsLrMnr-10" value="" style="whiteSpace=wrap;align=center;verticalAlign=middle;fontStyle=1;strokeWidth=3;fillColor=#fad7ac;strokeColor=#b46504;rounded=1;arcSize=43;movable=1;resizable=1;rotatable=1;deletable=1;editable=1;locked=0;connectable=1;fontSize=16;" parent="1" vertex="1">
          <mxGeometry x="411" y="465" width="60" height="40" as="geometry" />
        </mxCell>
        <mxCell id="-4hhy1pUOCJqZTsLrMnr-11" value="&lt;span style=&quot;font-size: 16px;&quot;&gt;T&lt;/span&gt;M" style="text;html=1;align=center;verticalAlign=middle;resizable=0;points=[];autosize=1;strokeColor=none;fillColor=none;fontStyle=1" parent="1" vertex="1">
          <mxGeometry x="420" y="469" width="40" height="30" as="geometry" />
        </mxCell>
        <mxCell id="-4hhy1pUOCJqZTsLrMnr-12" value="" style="whiteSpace=wrap;align=center;verticalAlign=middle;fontStyle=1;strokeWidth=3;fillColor=#fad7ac;strokeColor=#b46504;rounded=1;arcSize=43;movable=1;resizable=1;rotatable=1;deletable=1;editable=1;locked=0;connectable=1;fontSize=16;" parent="1" vertex="1">
          <mxGeometry x="481" y="465" width="60" height="40" as="geometry" />
        </mxCell>
        <mxCell id="-4hhy1pUOCJqZTsLrMnr-13" value="&lt;span style=&quot;font-size: 16px;&quot;&gt;T&lt;/span&gt;SEP" style="text;html=1;align=center;verticalAlign=middle;resizable=0;points=[];autosize=1;strokeColor=none;fillColor=none;fontStyle=1" parent="1" vertex="1">
          <mxGeometry x="480" y="469" width="60" height="30" as="geometry" />
        </mxCell>
        <mxCell id="-4hhy1pUOCJqZTsLrMnr-14" value="" style="whiteSpace=wrap;align=center;verticalAlign=middle;fontStyle=1;strokeWidth=3;fillColor=#fad7ac;strokeColor=#b46504;rounded=1;arcSize=43;movable=1;resizable=1;rotatable=1;deletable=1;editable=1;locked=0;connectable=1;fontSize=16;" parent="1" vertex="1">
          <mxGeometry x="561" y="465" width="60" height="40" as="geometry" />
        </mxCell>
        <mxCell id="-4hhy1pUOCJqZTsLrMnr-15" value="&lt;span style=&quot;font-size: 16px;&quot;&gt;T&lt;/span&gt;SEP" style="text;html=1;align=center;verticalAlign=middle;resizable=0;points=[];autosize=1;strokeColor=none;fillColor=none;fontStyle=1" parent="1" vertex="1">
          <mxGeometry x="560" y="469" width="60" height="30" as="geometry" />
        </mxCell>
        <mxCell id="-4hhy1pUOCJqZTsLrMnr-16" value="" style="whiteSpace=wrap;align=center;verticalAlign=middle;fontStyle=1;strokeWidth=3;fillColor=#fad7ac;strokeColor=#b46504;rounded=1;arcSize=43;movable=1;resizable=1;rotatable=1;deletable=1;editable=1;locked=0;connectable=1;fontSize=16;" parent="1" vertex="1">
          <mxGeometry x="641" y="466" width="60" height="40" as="geometry" />
        </mxCell>
        <mxCell id="-4hhy1pUOCJqZTsLrMnr-17" value="&lt;span style=&quot;font-size: 16px;&quot;&gt;T&lt;/span&gt;1" style="text;html=1;align=center;verticalAlign=middle;resizable=0;points=[];autosize=1;strokeColor=none;fillColor=none;fontStyle=1" parent="1" vertex="1">
          <mxGeometry x="650" y="470" width="40" height="30" as="geometry" />
        </mxCell>
        <mxCell id="-4hhy1pUOCJqZTsLrMnr-20" value="" style="whiteSpace=wrap;align=center;verticalAlign=middle;fontStyle=1;strokeWidth=3;fillColor=#fad7ac;strokeColor=#b46504;rounded=1;arcSize=43;movable=1;resizable=1;rotatable=1;deletable=1;editable=1;locked=0;connectable=1;fontSize=16;" parent="1" vertex="1">
          <mxGeometry x="766" y="466" width="60" height="40" as="geometry" />
        </mxCell>
        <mxCell id="-4hhy1pUOCJqZTsLrMnr-21" value="&lt;span style=&quot;font-size: 16px;&quot;&gt;T&lt;/span&gt;N" style="text;html=1;align=center;verticalAlign=middle;resizable=0;points=[];autosize=1;strokeColor=none;fillColor=none;fontStyle=1" parent="1" vertex="1">
          <mxGeometry x="775" y="470" width="40" height="30" as="geometry" />
        </mxCell>
        <mxCell id="-4hhy1pUOCJqZTsLrMnr-22" value="" style="whiteSpace=wrap;align=center;verticalAlign=middle;fontStyle=1;strokeWidth=3;fillColor=#fad7ac;strokeColor=#b46504;rounded=1;arcSize=43;movable=1;resizable=1;rotatable=1;deletable=1;editable=1;locked=0;connectable=1;fontSize=16;" parent="1" vertex="1">
          <mxGeometry x="838" y="466" width="60" height="40" as="geometry" />
        </mxCell>
        <mxCell id="-4hhy1pUOCJqZTsLrMnr-23" value="&lt;span style=&quot;font-size: 16px;&quot;&gt;T&lt;/span&gt;SEP" style="text;html=1;align=center;verticalAlign=middle;resizable=0;points=[];autosize=1;strokeColor=none;fillColor=none;fontStyle=1" parent="1" vertex="1">
          <mxGeometry x="837" y="470" width="60" height="30" as="geometry" />
        </mxCell>
        <mxCell id="-4hhy1pUOCJqZTsLrMnr-39" style="edgeStyle=orthogonalEdgeStyle;rounded=0;orthogonalLoop=1;jettySize=auto;html=1;entryX=0.771;entryY=0.975;entryDx=0;entryDy=0;entryPerimeter=0;" parent="1" source="-4hhy1pUOCJqZTsLrMnr-24" target="yOjdJgGesfleaYU3HEAB-208" edge="1">
          <mxGeometry relative="1" as="geometry" />
        </mxCell>
        <mxCell id="-4hhy1pUOCJqZTsLrMnr-40" style="edgeStyle=orthogonalEdgeStyle;rounded=0;orthogonalLoop=1;jettySize=auto;html=1;exitX=0.5;exitY=0;exitDx=0;exitDy=0;entryX=0.214;entryY=1;entryDx=0;entryDy=0;entryPerimeter=0;" parent="1" source="-4hhy1pUOCJqZTsLrMnr-29" target="yOjdJgGesfleaYU3HEAB-207" edge="1">
          <mxGeometry relative="1" as="geometry" />
        </mxCell>
        <mxCell id="-4hhy1pUOCJqZTsLrMnr-41" style="edgeStyle=orthogonalEdgeStyle;rounded=0;orthogonalLoop=1;jettySize=auto;html=1;entryX=0.75;entryY=1;entryDx=0;entryDy=0;" parent="1" source="-4hhy1pUOCJqZTsLrMnr-32" target="yOjdJgGesfleaYU3HEAB-207" edge="1">
          <mxGeometry relative="1" as="geometry" />
        </mxCell>
        <mxCell id="-4hhy1pUOCJqZTsLrMnr-42" value="&lt;span&gt;&lt;font style=&quot;font-size: 16px;&quot;&gt;C&lt;/font&gt;NLI&lt;/span&gt;" style="text;html=1;align=center;verticalAlign=middle;resizable=0;points=[];autosize=1;strokeColor=none;fillColor=none;fontStyle=1" parent="1" vertex="1">
          <mxGeometry x="431" y="344" width="50" height="30" as="geometry" />
        </mxCell>
        <mxCell id="-4hhy1pUOCJqZTsLrMnr-43" value="&lt;span&gt;&lt;font style=&quot;font-size: 16px;&quot;&gt;C&lt;/font&gt;P&lt;/span&gt;" style="text;html=1;align=center;verticalAlign=middle;resizable=0;points=[];autosize=1;strokeColor=none;fillColor=none;fontStyle=1" parent="1" vertex="1">
          <mxGeometry x="500" y="344" width="40" height="30" as="geometry" />
        </mxCell>
        <mxCell id="-4hhy1pUOCJqZTsLrMnr-44" value="&lt;span&gt;&lt;font style=&quot;font-size: 16px;&quot;&gt;C&lt;/font&gt;H&lt;/span&gt;" style="text;html=1;align=center;verticalAlign=middle;resizable=0;points=[];autosize=1;strokeColor=none;fillColor=none;fontStyle=1" parent="1" vertex="1">
          <mxGeometry x="564" y="344" width="40" height="30" as="geometry" />
        </mxCell>
      </root>
    </mxGraphModel>
  </diagram>
</mxfile>
